# 3ds Max Wavefront OBJ Exporter v0.97b - (c)2007 guruware
# File Created: 02.04.2019 01:22:08

mtllib 1.mtl

#
# object Object001
#

v  67.4966 138.5428 73.9193
v  67.4966 95.6102 -44.0371
v  58.4187 88.1145 -64.6314
v  49.9337 85.2124 -72.6047
v  28.0177 82.1076 -81.1351
v  -67.4966 138.5428 73.9193
v  -28.0177 82.1076 -81.1351
v  -49.9337 85.2124 -72.6047
v  -58.4187 88.1145 -64.6314
v  -67.4966 95.6102 -44.0371
v  -71.1438 136.3629 78.5940
v  -68.0621 133.8469 83.9898
v  68.0621 133.8469 83.9898
v  71.1438 136.3629 78.5940
v  75.3536 131.3530 77.1380
v  75.3536 90.1863 -35.9666
v  70.2480 92.8375 -43.6103
v  28.5650 78.5811 -82.7795
v  22.2890 72.0371 -85.8310
v  -22.2890 72.0371 -85.8310
v  -28.5650 78.5811 -82.7795
v  -70.2480 92.8375 -43.6103
v  -75.3536 90.1863 -35.9666
v  -75.3536 131.3530 77.1380
v  -60.7512 84.9960 -65.1549
v  -59.7320 77.3801 -71.1515
v  -51.4922 81.8292 -73.8555
v  51.4922 81.8292 -73.8555
v  59.7320 77.3801 -71.1515
v  60.7512 84.9960 -65.1549
v  -67.8699 81.5131 -59.7961
v  -72.5633 85.3884 -49.1487
v  47.6478 74.5967 -78.7987
v  36.3171 72.9915 -83.2090
v  -36.3171 72.9915 -83.2090
v  -47.6478 74.5967 -78.7987
v  72.5633 85.3884 -49.1487
v  67.8699 81.5131 -59.7961
v  -75.3536 116.1923 84.9467
v  -68.0621 120.5209 90.3206
v  68.0621 120.5209 90.3206
v  75.3536 71.3154 -39.1327
v  75.3536 116.1923 84.9467
v  22.2890 49.2300 -86.4950
v  -22.2890 49.2300 -86.4950
v  -75.3536 70.3213 -39.1327
v  72.5633 65.4769 -51.6533
v  67.8699 60.7611 -61.7664
v  -47.6478 52.3447 -79.8155
v  -36.3171 50.3914 -84.0044
v  47.6478 52.3447 -79.8155
v  36.3171 50.3914 -84.0044
v  -72.5633 65.4769 -51.6533
v  -67.8699 60.7611 -61.7664
v  59.7320 55.7317 -72.5520
v  -59.7320 55.7317 -72.5520
v  -22.2890 0.0000 -90.3598
v  22.2890 0.0000 -90.3598
v  72.5633 0.0000 -51.3232
v  67.8699 0.0000 -62.6540
v  -36.3171 0.0000 -87.5694
v  -47.6478 0.0000 -82.8761
v  47.6478 0.0000 -82.8761
v  36.3171 0.0000 -87.5694
v  -67.8699 0.0000 -62.6540
v  -72.5633 0.0000 -51.3232
v  68.0621 7.5473 143.9787
v  75.3536 1.3838 140.0828
v  75.3536 0.0000 -37.2952
v  59.7320 0.0000 -74.7381
v  -59.7320 0.0000 -74.7381
v  -75.3536 0.0000 -37.2952
v  -68.0621 7.5473 143.9787
v  -75.3536 1.3838 140.0828
v  68.0621 114.0588 76.7149
v  68.0621 1.0851 130.3731
v  -68.0621 114.0588 76.7149
v  -68.0621 1.0851 130.3731
v  75.3536 53.5133 73.6149
v  67.7286 53.5133 73.6149
v  67.7286 0.0000 73.6149
v  75.3536 0.0000 73.6149
v  75.3536 53.5133 89.4905
v  67.7286 53.5133 89.4905
v  75.3536 0.0000 89.4905
v  67.7286 0.0000 89.4905
v  75.3536 33.2803 37.2749
v  67.7286 33.2803 37.2749
v  67.7286 0.0000 37.2749
v  75.3536 0.0000 37.2749
v  75.3536 33.2803 53.1505
v  67.7286 33.2803 53.1505
v  75.3536 0.0000 53.1505
v  67.7286 0.0000 53.1505
v  75.3536 20.4990 1.9914
v  67.7286 20.4990 1.9914
v  67.7286 0.0000 1.9914
v  75.3536 0.0000 1.9914
v  67.7286 20.4990 17.8670
v  75.3536 20.4990 17.8670
v  75.3536 0.0000 17.8670
v  67.7286 0.0000 17.8670
v  -75.3536 0.0000 73.6149
v  -65.9591 0.0000 73.6149
v  -65.9591 53.5133 73.6149
v  -75.3536 53.5133 73.6149
v  -65.9591 0.0000 89.4905
v  -65.9591 53.5133 89.4905
v  -75.3536 53.5133 89.4905
v  -75.3536 0.0000 89.4905
v  -75.3536 0.0000 37.2749
v  -65.9591 0.0000 37.2749
v  -65.9591 33.2803 37.2749
v  -75.3536 33.2803 37.2749
v  -65.9591 0.0000 53.1505
v  -65.9591 33.2803 53.1505
v  -75.3536 33.2803 53.1505
v  -75.3536 0.0000 53.1505
v  -75.3536 0.0000 1.9914
v  -65.9591 0.0000 1.9914
v  -65.9591 20.4990 1.9914
v  -75.3536 20.4990 1.9914
v  -65.9591 0.0000 17.8670
v  -65.9591 20.4990 17.8670
v  -75.3536 20.4990 17.8670
v  -75.3536 0.0000 17.8670
v  -75.3536 0.0000 139.2081
v  75.3536 0.0000 139.2081
# 128 vertices

vn -0.0000 0.9397 -0.3420
vn 0.0000 0.9397 -0.3420
vn 0.0000 0.9063 0.4226
vn -0.0000 0.9063 0.4226
vn 0.7071 0.6645 -0.2418
vn 0.9083 0.3930 -0.1430
vn 0.9246 0.3351 -0.1813
vn 0.7160 0.5935 -0.3676
vn 0.6868 0.6242 -0.3725
vn 0.1366 0.4360 -0.8895
vn 0.1424 0.3973 -0.9066
vn 0.0667 0.2094 -0.9755
vn -0.0667 0.2094 -0.9755
vn -0.1424 0.3973 -0.9066
vn -0.1366 0.4360 -0.8895
vn -0.6868 0.6242 -0.3725
vn -0.7160 0.5935 -0.3676
vn -0.9247 0.3348 -0.1815
vn -0.9083 0.3930 -0.1430
vn -0.7071 0.6645 -0.2418
vn -0.6076 0.5022 -0.6153
vn -0.5822 0.5378 -0.6097
vn -0.3890 0.4718 -0.7913
vn -0.6330 0.2384 -0.7365
vn -0.4064 0.4334 -0.8044
vn 0.4064 0.4334 -0.8044
vn 0.3890 0.4718 -0.7913
vn 0.5822 0.5378 -0.6097
vn 0.6330 0.2384 -0.7365
vn 0.6076 0.5022 -0.6153
vn -0.7955 0.2966 -0.5285
vn -0.8658 0.3071 -0.3950
vn 0.3917 0.2297 -0.8910
vn 0.2642 0.2199 -0.9391
vn -0.2642 0.2199 -0.9391
vn -0.3917 0.2297 -0.8910
vn 0.8655 0.3075 -0.3954
vn 0.7955 0.2966 -0.5285
vn -0.7034 0.3369 0.6259
vn -0.6947 0.4125 0.5892
vn -0.6964 0.3474 0.6279
vn 0.7034 0.3369 0.6259
vn 0.6964 0.3474 0.6279
vn 0.6947 0.4125 0.5892
vn -0.6798 0.3358 0.6520
vn -0.6887 0.3251 0.6481
vn 0.0000 0.4291 0.9033
vn 0.9880 0.0215 -0.1529
vn 1.0000 0.0000 -0.0000
vn 0.0841 0.0290 -0.9960
vn -0.0841 0.0290 -0.9960
vn -0.9885 0.0206 -0.1500
vn -1.0000 0.0000 -0.0000
vn 0.9294 0.0399 -0.3668
vn 0.8343 0.0444 -0.5496
vn -0.4167 0.0376 -0.9083
vn -0.2524 0.0319 -0.9671
vn 0.4167 0.0376 -0.9083
vn 0.2524 0.0319 -0.9671
vn -0.9308 0.0395 -0.3633
vn -0.8343 0.0444 -0.5496
vn 0.6887 0.3251 0.6481
vn 0.6798 0.3358 0.6520
vn 0.6301 0.0436 -0.7753
vn -0.6301 0.0436 -0.7753
vn -0.0972 0.0779 -0.9922
vn -0.0895 0.0747 -0.9932
vn 0.0895 0.0747 -0.9932
vn 0.0972 0.0779 -0.9922
vn 0.8715 0.0025 -0.4903
vn 0.9566 -0.0040 -0.2914
vn 0.9563 0.0019 -0.2923
vn 0.8786 0.0129 -0.4775
vn -0.2650 0.0626 -0.9622
vn -0.2861 0.0708 -0.9556
vn -0.4676 0.0565 -0.8821
vn -0.4411 0.0443 -0.8964
vn 0.2650 0.0626 -0.9622
vn 0.4411 0.0443 -0.8964
vn 0.4676 0.0565 -0.8821
vn 0.2861 0.0708 -0.9556
vn -0.8715 0.0025 -0.4903
vn -0.8786 0.0129 -0.4775
vn -0.9563 0.0019 -0.2923
vn -0.9560 -0.0040 -0.2932
vn 0.6759 0.3163 0.6657
vn 0.6772 0.3157 0.6646
vn 0.6478 0.3297 0.6867
vn 0.6466 0.3302 0.6877
vn 0.9966 -0.0021 -0.0826
vn 0.9952 -0.0008 -0.0977
vn 0.6962 0.0203 -0.7176
vn 0.7008 0.0349 -0.7125
vn -0.6962 0.0203 -0.7176
vn -0.7008 0.0349 -0.7125
vn -0.9952 -0.0008 -0.0977
vn -0.9963 -0.0022 -0.0854
vn -0.6478 0.3297 0.6867
vn -0.6772 0.3157 0.6646
vn -0.6759 0.3163 0.6657
vn -0.6466 0.3302 0.6877
vn 0.0000 -0.9033 0.4290
vn 0.0000 0.9033 -0.4290
vn 0.0000 0.0000 1.0000
vn 0.0000 -1.0000 -0.0000
vn 0.0000 0.0000 -1.0000
vn -0.0000 -0.5343 0.8453
vn 0.0000 -0.5343 0.8453
vn 0.0000 0.4290 0.9033
# 109 vertex normals

vt 0.8005 0.1281 0.0000
vt 0.8237 0.6589 0.0000
vt 0.7924 0.7527 0.0000
vt 0.7594 0.7896 0.0000
vt 0.6692 0.8333 0.0000
vt 0.2324 0.1554 0.0000
vt 0.4309 0.8448 0.0000
vt 0.3369 0.8099 0.0000
vt 0.3005 0.7763 0.0000
vt 0.2604 0.6860 0.0000
vt 0.2175 0.1423 0.0000
vt 0.2271 0.1221 0.0000
vt 0.8025 0.0944 0.0000
vt 0.8141 0.1136 0.0000
vt 0.8327 0.1203 0.0000
vt 0.8626 0.6317 0.0000
vt 0.8362 0.6612 0.0000
vt 0.6731 0.8481 0.0000
vt 0.6488 0.8805 0.0000
vt 0.4557 0.8898 0.0000
vt 0.4284 0.8599 0.0000
vt 0.2482 0.6894 0.0000
vt 0.2191 0.6626 0.0000
vt 0.1996 0.1508 0.0000
vt 0.2890 0.7847 0.0000
vt 0.2881 0.8248 0.0000
vt 0.3291 0.8224 0.0000
vt 0.7683 0.8012 0.0000
vt 0.8094 0.7997 0.0000
vt 0.8047 0.7599 0.0000
vt 0.2508 0.7734 0.0000
vt 0.2300 0.7241 0.0000
vt 0.7598 0.8401 0.0000
vt 0.7105 0.8644 0.0000
vt 0.3927 0.8797 0.0000
vt 0.3414 0.8603 0.0000
vt 0.8576 0.6940 0.0000
vt 0.8416 0.7450 0.0000
vt 0.1452 0.1205 0.0000
vt 0.2054 0.0725 0.0000
vt 0.8194 0.0429 0.0000
vt 0.9320 0.6691 0.0000
vt 0.8839 0.0848 0.0000
vt 0.6606 0.9765 0.0000
vt 0.4531 0.9865 0.0000
vt 0.1498 0.7083 0.0000
vt 0.9262 0.7428 0.0000
vt 0.9039 0.8068 0.0000
vt 0.3098 0.9490 0.0000
vt 0.3754 0.9740 0.0000
vt 0.7996 0.9254 0.0000
vt 0.7367 0.9566 0.0000
vt 0.1664 0.7792 0.0000
vt 0.1947 0.8408 0.0000
vt 0.8614 0.8738 0.0000
vt 0.2433 0.9035 0.0000
vt 0.6479 0.0000 0.0000
vt 0.6479 0.4768 0.0000
vt 0.3521 0.4768 0.0000
vt 0.3521 0.0000 0.0000
vt -0.0227 0.4768 0.0000
vt -0.0997 0.4768 0.0000
vt -0.0997 -0.0000 0.0000
vt -0.0227 -0.0000 0.0000
vt -0.1148 0.4768 0.0000
vt -0.1148 -0.0000 0.0000
vt -0.0410 -0.0000 0.0000
vt -0.0410 0.4768 0.0000
vt 0.2530 0.4768 0.0000
vt 0.1678 0.4768 0.0000
vt 0.1678 -0.0000 0.0000
vt 0.2530 -0.0000 0.0000
vt 0.1340 0.4768 0.0000
vt 0.1340 -0.0000 0.0000
vt 0.2088 -0.0000 0.0000
vt 0.2088 0.4768 0.0000
vt 0.0334 0.4818 0.0000
vt -0.0274 0.5189 0.0000
vt -0.0343 0.0728 0.0000
vt 0.0265 0.0099 0.0000
vt -0.2356 0.4986 0.0000
vt -0.2384 0.0041 0.0000
vt -0.2701 0.4733 0.0000
vt -0.2702 -0.0008 0.0000
vt 0.0701 0.4768 0.0000
vt 0.0701 -0.0000 0.0000
vt 0.0462 0.4768 0.0000
vt 0.0462 -0.0000 0.0000
vt 0.2816 0.0000 0.0000
vt 0.2876 0.4768 0.0000
vt 1.0343 0.0728 0.0000
vt 1.0274 0.5189 0.0000
vt 0.9666 0.4818 0.0000
vt 0.9735 0.0099 0.0000
vt 0.9516 0.5037 0.0000
vt 0.9516 0.0538 0.0000
vt 0.0484 0.5037 0.0000
vt 0.0484 0.0538 0.0000
vt 0.7525 1.0000 0.0000
vt 1.0000 1.0000 0.0000
vt 1.0000 0.0000 0.0000
vt 0.7525 0.0000 0.0000
vt 0.2475 -0.0000 0.0000
vt 0.0000 -0.0000 0.0000
vt 0.0000 1.0000 0.0000
vt 0.2475 1.0000 0.0000
vt 0.0000 0.0000 0.0000
vt 0.2475 0.0000 0.0000
vt 0.3049 0.0000 0.0000
vt 0.3049 1.0000 0.0000
vt 0.6951 1.0000 0.0000
vt 0.6951 0.0000 0.0000
vt 1.0000 -0.0000 0.0000
vt 0.6951 -0.0000 0.0000
vt -0.0000 -0.0121 0.0000
vt 1.0000 -0.0121 0.0000
vt 0.0325 0.0000 0.0000
vt 0.2257 0.0000 0.0000
vt 0.1290 0.2219 0.0000
vt 0.0266 0.0057 0.0000
vt 0.1907 0.2219 0.0000
vt 0.2874 0.0000 0.0000
vt 0.3669 0.0000 0.0000
vt 0.3068 0.1380 0.0000
vt 0.3685 0.1380 0.0000
vt 0.4286 0.0000 0.0000
vt 0.5040 0.0000 0.0000
vt 0.4670 0.0850 0.0000
vt 0.5287 0.0850 0.0000
vt 0.5967 0.2957 0.0000
vt 0.7184 0.0000 0.0000
vt 0.5657 0.0000 0.0000
vt 1.0000 0.3169 0.0000
vt 1.0000 0.4057 0.0000
vt 0.9377 0.4007 0.0000
vt 0.9377 0.3120 0.0000
vt 0.9377 0.4695 0.0000
vt 1.0000 0.4745 0.0000
vt 1.0000 0.5587 0.0000
vt 0.9377 0.5537 0.0000
vt 0.9377 0.6226 0.0000
vt 1.0000 0.6275 0.0000
vt 1.0000 0.7979 0.0000
vt 0.9503 0.9039 0.0000
vt 0.8963 0.9520 0.0000
vt 0.8162 0.9809 0.0000
vt 0.9815 0.8572 0.0000
vt 0.7410 0.9953 0.0000
vt 0.6479 1.0000 0.0000
vt 0.3521 0.9765 0.0000
vt 0.2590 0.9570 0.0000
vt 0.1838 0.9307 0.0000
vt 0.1037 0.8890 0.0000
vt 0.0497 0.8323 0.0000
vt 0.0185 0.7807 0.0000
vt 0.0000 0.7184 0.0000
vt 0.0000 0.5480 0.0000
vt 0.0506 0.5520 0.0000
vt 0.0506 0.4832 0.0000
vt -0.0000 0.4792 0.0000
vt 0.0000 0.3950 0.0000
vt 0.0506 0.3990 0.0000
vt 0.0506 0.3302 0.0000
vt 0.0000 0.3262 0.0000
vt 0.0000 0.2374 0.0000
vt 0.0506 0.2414 0.0000
vt 0.9377 0.2431 0.0000
vt 0.0506 0.1726 0.0000
vt -0.0000 0.1686 0.0000
vt 0.0000 -0.0470 0.0000
vt 1.0000 0.0325 0.0000
vt 1.0000 0.2481 0.0000
vt 0.4455 0.2273 0.0000
vt 0.4010 0.1545 0.0000
vt 0.4916 0.1298 0.0000
vt 0.5639 0.2480 0.0000
vt 0.6380 0.2278 0.0000
vt 0.5657 0.1096 0.0000
vt 0.6613 0.0835 0.0000
vt 0.7775 0.2736 0.0000
vt 0.8516 0.2534 0.0000
vt 0.7354 0.0633 0.0000
vt 0.9675 0.0000 0.0000
vt 0.9746 0.0038 0.0000
vt 0.3714 0.2475 0.0000
vt 0.1435 0.2247 0.0000
vt 0.3269 0.1747 0.0000
vt 1.0043 0.0461 0.0000
vt 1.0043 0.9799 0.0000
vt -0.0043 0.9799 0.0000
vt -0.0043 0.0461 0.0000
# 191 texture coords

o Object001
g Object001
usemtl Material__45
s 1
f 1/1/1 2/2/2 3/3/2 
f 3/3/2 4/4/2 5/5/2 
f 1/1/1 3/3/2 5/5/2 
f 6/6/2 1/1/1 5/5/2 
f 5/5/2 7/7/2 8/8/2 
f 8/8/2 9/9/2 10/10/2 
f 5/5/2 8/8/2 10/10/2 
f 6/6/2 5/5/2 10/10/2 
s 4
f 6/6/3 11/11/3 12/12/3 
f 12/12/3 13/13/3 14/14/4 
f 6/6/3 12/12/3 14/14/4 
f 6/6/3 14/14/4 1/1/3 
s 2
f 1/1/5 14/14/5 15/15/6 
f 15/15/6 16/16/7 17/17/8 
f 1/1/5 15/15/6 17/17/8 
f 1/1/5 17/17/8 2/2/9 
f 5/5/10 18/18/11 19/19/12 
f 19/19/12 20/20/13 21/21/14 
f 5/5/10 19/19/12 21/21/14 
f 5/5/10 21/21/14 7/7/15 
f 10/10/16 22/22/17 23/23/18 
f 23/23/18 24/24/19 11/11/20 
f 10/10/16 23/23/18 11/11/20 
f 10/10/16 11/11/20 6/6/20 
f 25/25/21 9/9/22 8/8/23 
f 26/26/24 25/25/21 8/8/23 
f 26/26/24 8/8/23 27/27/25 
f 28/28/26 4/4/27 3/3/28 
f 29/29/29 28/28/26 3/3/28 
f 29/29/29 3/3/28 30/30/30 
f 22/22/17 10/10/16 9/9/22 
f 9/9/22 25/25/21 31/31/31 
f 22/22/17 9/9/22 31/31/31 
f 32/32/32 22/22/17 31/31/31 
f 18/18/11 5/5/10 4/4/27 
f 4/4/27 28/28/26 33/33/33 
f 18/18/11 4/4/27 33/33/33 
f 34/34/34 18/18/11 33/33/33 
f 27/27/25 8/8/23 7/7/15 
f 7/7/15 21/21/14 35/35/35 
f 27/27/25 7/7/15 35/35/35 
f 36/36/36 27/27/25 35/35/35 
f 30/30/30 3/3/28 2/2/9 
f 2/2/9 17/17/8 37/37/37 
f 30/30/30 2/2/9 37/37/37 
f 38/38/38 30/30/30 37/37/37 
s 8
f 12/12/39 11/11/40 24/24/41 
f 13/13/42 15/15/43 14/14/44 
s 2
f 23/23/18 22/22/17 32/32/32 
f 19/19/12 18/18/11 34/34/34 
f 26/26/24 27/27/25 36/36/36 
f 29/29/29 30/30/30 38/38/38 
f 20/20/13 35/35/35 21/21/14 
f 37/37/37 17/17/8 16/16/7 
f 31/31/31 25/25/21 26/26/24 
f 33/33/33 28/28/26 29/29/29 
s 8
f 24/24/41 39/39/45 40/40/46 
f 40/40/46 12/12/39 24/24/41 
s 1
f 13/13/47 12/12/47 40/40/47 
f 40/40/47 41/41/47 13/13/47 
s 2
f 42/42/48 16/16/7 15/15/6 
f 15/15/6 43/43/49 42/42/48 
f 20/20/13 19/19/12 44/44/50 
f 44/44/50 45/45/51 20/20/13 
f 24/24/19 23/23/18 46/46/52 
f 46/46/52 39/39/53 24/24/19 
f 38/38/38 37/37/37 47/47/54 
f 47/47/54 48/48/55 38/38/38 
f 49/49/56 36/36/36 35/35/35 
f 35/35/35 50/50/57 49/49/56 
f 34/34/34 33/33/33 51/51/58 
f 51/51/58 52/52/59 34/34/34 
f 53/53/60 32/32/32 31/31/31 
f 31/31/31 54/54/61 53/53/60 
s 8
f 15/15/43 13/13/42 41/41/62 
f 41/41/62 43/43/63 15/15/43 
s 2
f 37/37/37 16/16/7 42/42/48 
f 42/42/48 47/47/54 37/37/37 
f 50/50/57 35/35/35 20/20/13 
f 20/20/13 45/45/51 50/50/57 
f 33/33/33 29/29/29 55/55/64 
f 55/55/64 51/51/58 33/33/33 
f 54/54/61 31/31/31 26/26/24 
f 26/26/24 56/56/65 54/54/61 
f 29/29/29 38/38/38 48/48/55 
f 48/48/55 55/55/64 29/29/29 
f 56/56/65 26/26/24 36/36/36 
f 36/36/36 49/49/56 56/56/65 
f 19/19/12 34/34/34 52/52/59 
f 52/52/59 44/44/50 19/19/12 
f 46/46/52 23/23/18 32/32/32 
f 32/32/32 53/53/60 46/46/52 
usemtl Material__44
f 57/57/66 45/58/67 44/59/68 
f 44/59/68 58/60/69 57/57/66 
f 48/61/70 47/62/71 59/63/72 
f 59/63/72 60/64/73 48/61/70 
f 50/65/74 61/66/75 62/67/76 
f 62/67/76 49/68/77 50/65/74 
f 52/69/78 51/70/79 63/71/80 
f 63/71/80 64/72/81 52/69/78 
f 54/73/82 65/74/83 66/75/84 
f 66/75/84 53/76/85 54/73/82 
s 8
f 43/77/86 41/78/87 67/79/88 
f 67/79/88 68/80/89 43/77/86 
s 2
f 47/62/71 42/81/90 69/82/91 
f 69/82/91 59/63/72 47/62/71 
f 45/83/67 57/84/66 61/66/75 
f 61/66/75 50/65/74 45/83/67 
f 51/70/79 55/85/92 70/86/93 
f 70/86/93 63/71/80 51/70/79 
f 56/87/94 71/88/95 65/74/83 
f 65/74/83 54/73/82 56/87/94 
f 55/85/92 48/61/70 60/64/73 
f 60/64/73 70/86/93 55/85/92 
f 49/68/77 62/67/76 71/88/95 
f 71/88/95 56/87/94 49/68/77 
f 44/59/68 52/69/78 64/72/81 
f 64/72/81 58/60/69 44/59/68 
f 53/76/85 66/75/84 72/89/96 
f 72/89/96 46/90/97 53/76/85 
s 8
f 73/91/98 40/92/99 39/93/100 
f 39/93/100 74/94/101 73/91/98 
s off
f 41/95/53 75/95/53 76/96/53 
f 76/96/53 67/96/53 41/95/53 
f 40/97/102 77/97/102 75/95/102 
f 75/95/102 41/95/102 40/97/102 
f 40/97/49 73/98/49 78/98/49 
f 78/98/49 77/97/49 40/97/49 
f 73/98/103 67/96/103 76/96/103 
f 76/96/103 78/98/103 73/98/103 
s 8
f 79/99/104 80/100/104 81/101/104 
f 81/101/104 82/102/104 79/99/104 
s 1
f 83/103/105 84/104/105 80/105/105 
f 80/105/105 79/106/105 83/103/105 
s 4
f 85/103/106 86/107/106 84/105/106 
f 84/105/106 83/106/106 85/103/106 
s 2
f 84/100/49 86/101/49 81/107/49 
f 81/107/49 80/105/49 84/100/49 
s 8
f 87/99/104 88/100/104 89/101/104 
f 89/101/104 90/102/104 87/99/104 
s 1
f 91/108/105 92/107/105 88/105/105 
f 88/105/105 87/106/105 91/108/105 
s 4
f 93/103/106 94/107/106 92/105/106 
f 92/105/106 91/106/106 93/103/106 
s 2
f 92/100/49 94/101/49 89/107/49 
f 89/107/49 88/105/49 92/100/49 
s 8
f 95/99/104 96/100/104 97/101/104 
f 97/101/104 98/102/104 95/99/104 
s 1
f 99/107/105 96/105/105 95/106/105 
f 95/106/105 100/108/105 99/107/105 
s 4
f 101/103/106 102/107/106 99/105/106 
f 99/105/106 100/106/106 101/103/106 
s 2
f 102/101/49 97/107/49 96/105/49 
f 96/105/49 99/100/49 102/101/49 
s 8
f 103/109/104 104/107/104 105/105/104 
f 105/105/104 106/110/104 103/109/104 
s 2
f 105/100/53 104/101/53 107/107/53 
f 107/107/53 108/105/53 105/100/53 
s 8
f 109/111/106 108/100/106 107/101/106 
f 107/101/106 110/112/106 109/111/106 
s 1
f 106/111/105 105/100/105 108/113/105 
f 108/113/105 109/114/105 106/111/105 
s 8
f 111/109/104 112/107/104 113/105/104 
f 113/105/104 114/110/104 111/109/104 
s 2
f 113/100/53 112/101/53 115/107/53 
f 115/107/53 116/105/53 113/100/53 
s 8
f 117/111/106 116/100/106 115/101/106 
f 115/101/106 118/112/106 117/111/106 
s 1
f 114/111/105 113/100/105 116/101/105 
f 116/101/105 117/112/105 114/111/105 
s 8
f 119/109/104 120/107/104 121/105/104 
f 121/105/104 122/110/104 119/109/104 
s 2
f 120/101/53 123/107/53 124/105/53 
f 124/105/53 121/100/53 120/101/53 
s 8
f 125/111/106 124/100/106 123/101/106 
f 123/101/106 126/112/106 125/111/106 
s 1
f 122/111/105 121/100/105 124/101/105 
f 124/101/105 125/112/105 122/111/105 
s 4
f 67/96/107 73/98/108 74/104/108 
f 67/96/107 74/104/108 127/115/108 
f 68/113/107 67/96/107 127/115/108 
f 68/113/107 127/115/108 128/116/108 
s 2
f 128/117/49 85/118/49 83/119/49 
f 68/120/49 128/117/49 83/119/49 
f 43/77/49 68/120/49 83/119/49 
f 43/77/49 83/119/49 79/121/49 
f 82/122/49 93/123/49 91/124/49 
f 79/121/49 82/122/49 91/124/49 
f 43/77/49 79/121/49 91/124/49 
f 43/77/49 91/124/49 87/125/49 
f 87/125/49 90/126/49 101/127/49 
f 87/125/49 101/127/49 100/128/49 
f 43/77/49 87/125/49 100/128/49 
f 43/77/49 100/128/49 95/129/49 
f 42/130/90 43/77/49 95/129/49 
f 69/131/91 42/130/90 95/129/49 
f 69/131/91 95/129/49 98/132/49 
s 1
f 103/133/105 118/134/105 115/135/105 
f 104/136/105 103/133/105 115/135/105 
f 112/137/105 111/138/105 126/139/105 
f 112/137/105 126/139/105 123/140/105 
f 120/141/105 119/142/105 72/143/105 
f 65/144/105 71/145/105 62/146/105 
f 66/147/105 65/144/105 62/146/105 
f 66/147/105 62/146/105 61/148/105 
f 72/143/105 66/147/105 61/148/105 
f 72/143/105 61/148/105 57/149/105 
f 72/143/105 57/149/105 58/150/105 
f 72/143/105 58/150/105 64/151/105 
f 72/143/105 64/151/105 63/152/105 
f 72/143/105 63/152/105 70/153/105 
f 72/143/105 70/153/105 60/154/105 
f 72/143/105 60/154/105 59/155/105 
f 72/143/105 59/155/105 69/156/105 
f 120/141/105 72/143/105 69/156/105 
f 69/156/105 98/157/105 97/158/105 
f 120/141/105 69/156/105 97/158/105 
f 123/140/105 120/141/105 97/158/105 
f 123/140/105 97/158/105 102/159/105 
f 112/137/105 123/140/105 102/159/105 
f 102/159/105 101/160/105 90/161/105 
f 102/159/105 90/161/105 89/162/105 
f 112/137/105 102/159/105 89/162/105 
f 115/135/105 112/137/105 89/162/105 
f 115/135/105 89/162/105 94/163/105 
f 104/136/105 115/135/105 94/163/105 
f 94/163/105 93/164/105 82/165/105 
f 94/163/105 82/165/105 81/166/105 
f 104/136/105 94/163/105 81/166/105 
f 107/167/105 104/136/105 81/166/105 
f 107/167/105 81/166/105 86/168/105 
f 86/168/105 85/169/105 128/170/105 
f 86/168/105 128/170/105 127/171/105 
f 107/167/105 86/168/105 127/171/105 
f 107/167/105 127/171/105 110/172/105 
s 2
f 125/173/53 126/174/53 111/175/53 
f 125/173/53 111/175/53 114/176/53 
f 117/177/53 118/178/53 103/179/53 
f 117/177/53 103/179/53 106/180/53 
f 109/181/53 110/182/53 127/183/53 
f 109/181/53 127/183/53 74/184/53 
f 109/181/53 74/184/53 39/93/53 
f 106/180/53 109/181/53 39/93/53 
f 117/177/53 106/180/53 39/93/53 
f 114/176/53 117/177/53 39/93/53 
f 125/173/53 114/176/53 39/93/53 
f 122/185/53 125/173/53 39/93/53 
f 122/185/53 39/93/53 46/90/97 
f 122/185/53 46/90/97 72/186/96 
f 122/185/53 72/186/96 119/187/53 
usemtl Material__43
s 1
f 76/188/109 75/189/109 77/190/109 
f 77/190/109 78/191/109 76/188/109 
# 252 faces

